Coordinates
version=1
nRows=16
nColumns=22
inDegrees=yes

Units are S.I. units (second, meters, Newtons, ...)
If the header above contains a line with 'inDegrees', this indicates whether rotational values are in degrees (yes) or radians (no).

endheader
time	pelvis_tilt	pelvis_list	pelvis_rotation	pelvis_tx	pelvis_ty	pelvis_tz	hip_flexion_r	hip_adduction_r	hip_rotation_r	knee_angle_r	ankle_angle_r	subtalar_angle_r	hip_flexion_l	hip_adduction_l	hip_rotation_l	knee_angle_l	ankle_angle_l	subtalar_angle_l	lumbar_extension	lumbar_bending	lumbar_rotation
      4.35000000	      5.78855492	     -4.31149516	      7.15522656	      0.42169204	      1.08422900	     -0.29797713	     -1.25465799	      8.93621269	     -8.46795179	     -8.02680302	      5.50150095	     -5.94668952	     14.89860142	     -7.07971596	      5.00938689	    -49.46864928	     11.84465044	      4.52892650	     -7.45511365	      2.76633605	     -0.70787519
      4.36000000	      5.75717556	     -4.26743557	      6.96054312	      0.42539328	      1.08432300	     -0.29747105	     -1.56412285	      8.94511393	     -8.22825200	     -7.81690096	      5.59240977	     -6.16172731	     14.88102502	     -7.02240680	      4.94424591	    -48.21416633	     12.29098101	      4.49808924	     -7.46759895	      2.73903241	     -0.56531828
      4.37000000	      5.72998302	     -4.21975032	      6.75001033	      0.42902113	      1.08441275	     -0.29698483	     -1.85883658	      8.94242389	     -7.98970604	     -7.63669420	      5.69463051	     -6.32564991	     14.81897643	     -6.95420915	      4.88433877	    -46.99613947	     12.70345129	      4.51781393	     -7.48325383	      2.70907437	     -0.43199888
      4.38000000	      5.70139282	     -4.16953351	      6.51955019	      0.43257444	      1.08448713	     -0.29650065	     -2.12523817	      8.92785420	     -7.75736264	     -7.50044470	      5.80899145	     -6.42005526	     14.72150953	     -6.87525135	      4.82846849	    -45.82749383	     13.08926470	      4.58716176	     -7.49552967	      2.67379596	     -0.31002200
      4.39000000	      5.67179082	     -4.11384255	      6.26921390	      0.43605623	      1.08455133	     -0.29603072	     -2.36368391	      8.89731993	     -7.53008551	     -7.40881742	      5.93317782	     -6.44933315	     14.58821781	     -6.77780536	      4.78401244	    -44.71322269	     13.44840463	      4.70446325	     -7.50344452	      2.63233276	     -0.20009333
      4.40000000	      5.63409084	     -4.05307996	      6.00282823	      0.43946923	      1.08459524	     -0.29558103	     -2.56427206	      8.85070671	     -7.31241149	     -7.36580832	      6.07398005	     -6.42741290	     14.43013421	     -6.65988820	      4.75517386	    -43.65784287	     13.77627109	      4.86375123	     -7.49814411	      2.58453974	     -0.10253375
      4.41000000	      5.59643898	     -3.98608507	      5.72501738	      0.44281046	      1.08463891	     -0.29516077	     -2.74040486	      8.78895451	     -7.09432884	     -7.36197342	      6.21827592	     -6.37202785	     14.23742761	     -6.51520428	      4.76184146	    -42.65630249	     14.07384801	      5.08034775	     -7.48999337	      2.53074928	     -0.02597989
      4.42000000	      5.54304852	     -3.91367327	      5.44035068	      0.44607341	      1.08465263	     -0.29475651	     -2.87506418	      8.71400240	     -6.88218545	     -7.39519932	      6.37697020	     -6.30515896	     14.03183840	     -6.34625204	      4.80454965	    -41.70848579	     14.34915418	      5.33821113	     -7.46183995	      2.46562511	      0.02442284
      4.43000000	      5.48184199	     -3.84035262	      5.15603151	      0.44927566	      1.08465675	     -0.29440079	     -2.98410962	      8.63124371	     -6.67421980	     -7.45397250	      6.54045320	     -6.23915434	     13.80434343	     -6.15846492	      4.88685842	    -40.80471677	     14.59173934	      5.65155092	     -7.41891037	      2.40146561	      0.04951826
      4.44000000	      5.41277505	     -3.76783516	      4.88105392	      0.45241733	      1.08464910	     -0.29408356	     -3.07267124	      8.54576332	     -6.46822156	     -7.52780183	      6.70778214	     -6.18153522	     13.55690781	     -5.95977440	      5.00563172	    -39.93616558	     14.80741820	      6.01753261	     -7.36147729	      2.33471806	      0.05174280
      4.45000000	      5.34288614	     -3.71216118	      4.61539818	      0.45552582	      1.08463510	     -0.29381682	     -3.16008271	      8.47594295	     -6.26976411	     -7.59306369	      6.86278573	     -6.13236115	     13.28441726	     -5.77039250	      5.16075563	    -39.10303301	     14.99259450	      6.43275346	     -7.29137688	      2.28956669	      0.02828115
      4.46000000	      5.25591180	     -3.65305192	      4.35890079	      0.45856595	      1.08459299	     -0.29360053	     -3.20529908	      8.39647460	     -6.07831728	     -7.69939565	      7.03614144	     -6.09977442	     13.00247914	     -5.57925887	      5.30774107	    -38.28789588	     15.10667978	      6.76516852	     -7.19886574	      2.23858608	     -0.00999096
      4.47000000	      5.18180525	     -3.60868385	      4.11313618	      0.46159374	      1.08455831	     -0.29341633	     -3.27118614	      8.33340799	     -5.88589074	     -7.78729706	      7.19496705	     -6.06398316	     12.67940096	     -5.41469157	      5.44341500	    -37.49134329	     15.17148334	      7.08340724	     -7.10947119	      2.20153380	     -0.06584562
      4.48000000	      5.10526129	     -3.57739054	      3.88176794	      0.46460552	      1.08450423	     -0.29328818	     -3.33214745	      8.28194524	     -5.70175282	     -7.87616239	      7.34884670	     -6.02958019	     12.33513408	     -5.27881519	      5.53993882	    -36.70790003	     15.15543534	      7.28612533	     -7.00457016	      2.18083133	     -0.13066656
      4.49000000	      5.03244181	     -3.55885223	      3.66152980	      0.46762478	      1.08443510	     -0.29319867	     -3.40208679	      8.24348493	     -5.52151252	     -7.95557795	      7.49463060	     -5.99260458	     11.96319339	     -5.17869171	      5.57254868	    -35.93479891	     15.05599151	      7.36982427	     -6.88992780	      2.17159255	     -0.20124993
      4.50000000	      4.97406474	     -3.55608163	      3.45004192	      0.47067009	      1.08436155	     -0.29314536	     -3.50027305	      8.22209534	     -5.34207281	     -8.01080662	      7.63314723	     -5.94760605	     11.55020502	     -5.12024624	      5.52882816	    -35.16642274	     14.87705272	      7.30631455	     -6.77417145	      2.17827202	     -0.26334221
